<svg id="レイヤー_1" data-name="レイヤー 1" xmlns="http://www.w3.org/2000/svg" viewBox="0 0 418 183"><defs><style>.cls-1,.cls-3{fill:#231815;}.cls-2{fill:#fff;stroke:#231815;stroke-miterlimit:10;}.cls-3{font-size:18px;font-family:PalatinoLinotype-Roman, Palatino Linotype;}</style></defs><title>アートボード 1</title><path class="cls-1" d="M111.46,63.64a15,15,0,0,1,4.79-4.48,11.64,11.64,0,0,1,5.82-1.5,11,11,0,0,1,6,1.5,6.91,6.91,0,0,1,3.08,3.68,25.22,25.22,0,0,1,.71,7.1v8a54,54,0,0,0,.2,6.23,2.17,2.17,0,0,0,1.16,1.62,8.37,8.37,0,0,0,3.56.52V88H121.67V86.35h.68q2.6,0,3.36-.75a2.91,2.91,0,0,0,.89-1.76q.12-1,.12-5.85V69.23a24.62,24.62,0,0,0-.43-5.37,4.93,4.93,0,0,0-2-2.88,6.63,6.63,0,0,0-4-1.14,8.21,8.21,0,0,0-5,1.62,13.64,13.64,0,0,0-3.88,4.86V78q0,4.91.16,6.05a2.32,2.32,0,0,0,1.09,1.73,6.83,6.83,0,0,0,3.38.59V88H101.28V86.35H102q2.56,0,3.33-.73a2.82,2.82,0,0,0,.89-1.74q.12-1,.12-5.89v-29q0-4.41-.84-5.59t-4-1.17V40.54a24.45,24.45,0,0,0,9.18-1.5h.75Z"/><path class="cls-1" d="M141,73.36a15.23,15.23,0,0,1,4.48-11.19,15.79,15.79,0,0,1,22.1,0,15.24,15.24,0,0,1,4.48,11.18q0,7.37-4.56,11.58a15.61,15.61,0,0,1-11,4.22,15.41,15.41,0,0,1-11-4.29Q141,80.58,141,73.36Zm5.91.18q0,7.76,2.53,10.87a9.67,9.67,0,0,0,14.22,0q2.47-3.11,2.47-10.87t-2.46-11a9.45,9.45,0,0,0-14.29,0Q146.91,65.81,146.91,73.53Z"/><path class="cls-1" d="M185,57.66h.36a15.53,15.53,0,0,1,1,6.12,17.22,17.22,0,0,1,5.14-4.59,12,12,0,0,1,5.93-1.53,9.67,9.67,0,0,1,5.84,1.64,8.63,8.63,0,0,1,3.13,4.91,20.87,20.87,0,0,1,5.55-4.91,11.52,11.52,0,0,1,5.8-1.64,10.1,10.1,0,0,1,5.73,1.57,6.23,6.23,0,0,1,2.85,3.56,29.47,29.47,0,0,1,.5,6.44V78a53.53,53.53,0,0,0,.2,6.19,2.23,2.23,0,0,0,1.14,1.64,7.88,7.88,0,0,0,3.51.53V88H217.09V86.35a7.33,7.33,0,0,0,3.26-.52,2.21,2.21,0,0,0,1.16-1.57,49.55,49.55,0,0,0,.21-6.28V68.27a21.73,21.73,0,0,0-.34-4.45,4.4,4.4,0,0,0-1.76-2.56,6,6,0,0,0-3.7-1.07,8.29,8.29,0,0,0-4.64,1.57,19.9,19.9,0,0,0-4.68,4.73V78q0,4.66.12,5.85a2.53,2.53,0,0,0,1,1.85,5.38,5.38,0,0,0,3.11.66V88H196.73V86.35a7.79,7.79,0,0,0,3.33-.5,2.2,2.2,0,0,0,1.17-1.53,46.21,46.21,0,0,0,.23-6.34V69.9a36.11,36.11,0,0,0-.3-5.57,4.79,4.79,0,0,0-1.83-3,5.89,5.89,0,0,0-3.81-1.23,8.52,8.52,0,0,0-4.5,1.42,20.25,20.25,0,0,0-4.68,4.27V78q0,4.8.14,6a2.35,2.35,0,0,0,1.07,1.78,6.46,6.46,0,0,0,3.31.6V88H176.59V86.35a7.44,7.44,0,0,0,3.29-.52A2.2,2.2,0,0,0,181,84.28a49.52,49.52,0,0,0,.21-6.3V69.26q0-5-.16-6.1a2.25,2.25,0,0,0-1.1-1.69,7.13,7.13,0,0,0-3.4-.57V59.26A39,39,0,0,0,185,57.66Z"/><path class="cls-1" d="M236.51,90.54l-1.06-2q1.94-6.63,3.76-12t4.09-11q2.27-5.67,5-11.47L254.36,41l-1.82-12.74A19.38,19.38,0,0,0,251,22.16a3.3,3.3,0,0,0-3.12-1.66,18.42,18.42,0,0,0-2.42.26l0-1.71q6.88-2.69,8.61-2.69a1.93,1.93,0,0,1,1.83,1.22,13.51,13.51,0,0,1,.92,4q.39,3.11,2.73,20.28t3.85,25.93q1.51,8.75,2.39,12A11.79,11.79,0,0,0,267.57,84a2.9,2.9,0,0,0,2.24,1.11,3.43,3.43,0,0,0,2.24-1.09v1.76a26.81,26.81,0,0,1-4.2,4.09A5.13,5.13,0,0,1,265,91q-2.79,0-4-5.34T256.57,57l-1.76-12.54a192.85,192.85,0,0,0-8.23,21.47,136.6,136.6,0,0,0-5.17,21.68Q239.51,88.88,236.51,90.54Z"/><path class="cls-1" d="M311.86,81a1.24,1.24,0,0,1,.71.93l-.71.82-.89,1q-.25.28-.93,1L309,85.83q-.39.39-1.07,1a8.22,8.22,0,0,1-1.21.93l-1.14.71a4,4,0,0,1-1.17.53,4.7,4.7,0,0,1-1.14.14,2.51,2.51,0,0,1-1.42-.43,3.5,3.5,0,0,1-1.1-1.28q-.46-.85-.82-1.64a12.48,12.48,0,0,1-.68-2q-.32-1.24-.43-1.92T298.47,80q-.21-1.17-.21-1.32l-.21-.21q-7.62,10.68-15.87,10.68-6.62,0-7.76-7.9a25.72,25.72,0,0,1,.32-9,32.74,32.74,0,0,1,3.17-9,20.47,20.47,0,0,1,5.94-6.94A13.38,13.38,0,0,1,292,53.55a8.53,8.53,0,0,1,3,.5,5.26,5.26,0,0,1,2.24,1.64,19.59,19.59,0,0,1,1.53,2.14,9.36,9.36,0,0,1,1,2.85q.39,1.85.57,2.81t.43,3q.25,2.06.32,2.56l.5.21q4.48-9.82,4.63-14.73H307q1.07,1.5,2.21,3.35A75.8,75.8,0,0,1,302,72.27s.07.5.21,1.35.27,1.53.39,2,.28,1.22.5,2.17a17.07,17.07,0,0,0,.68,2.35q.36.93.82,1.89a4.22,4.22,0,0,0,1.07,1.46,1.94,1.94,0,0,0,1.25.5,2.48,2.48,0,0,0,.71-.11l.64-.18a1.76,1.76,0,0,0,.64-.36q.36-.28.57-.43a4.15,4.15,0,0,0,.57-.5l.46-.46q.11-.11.46-.53l.43-.5ZM297.76,76,297.48,74q-1.42-9.75-3.35-13.6-2.14-4.2-5.2-4.2-3.7,0-6.12,4.63a29.22,29.22,0,0,0-3.1,9.93,31.88,31.88,0,0,0-.11,8.86q1,6.34,5.69,6.33Q291.07,85.94,297.76,76Z"/><line class="cls-2" x1="43.63" y1="106.35" x2="370.22" y2="106.35"/><text class="cls-3" transform="translate(97.54 138.35)">Haskell Optimized Mathematical<tspan x="109.47" y="24">Library for Algebra</tspan></text></svg>